<svg width="224" height="213" viewBox="0 0 224 213" fill="none" xmlns="http://www.w3.org/2000/svg">
<path d="M159.383 187.748C159.383 187.748 155.593 177.756 165.585 171.555C175.576 165.353 169.03 161.908 179.251 156.51C189.472 151.113 184.764 145.83 192.114 136.183C192.114 136.183 192.056 142.557 193.492 147.036C195.961 154.615 193.262 160.702 188.611 166.731C181.778 175.517 191.482 187.691 179.538 195.5C167.594 203.309 159.383 187.748 159.383 187.748Z" fill="#F7B61E"/>
<path d="M191.02 140.202C191.02 140.202 190.905 141.121 190.733 142.729C190.56 144.337 190.273 146.691 189.929 149.447C189.814 150.136 189.756 150.826 189.642 151.629C189.584 152.031 189.527 152.376 189.412 152.778C189.297 153.18 189.182 153.582 189.01 153.984C188.378 155.534 187.345 156.97 186.024 158.233C184.761 159.496 183.325 160.587 182.004 161.793C180.684 162.999 179.535 164.377 178.904 166.042C178.215 167.708 177.927 169.545 177.583 171.325C177.238 173.105 176.894 174.886 176.377 176.608C175.918 178.331 175.286 179.939 174.597 181.374C173.85 182.867 172.989 184.13 172.013 185.164C171.037 186.255 170.003 187.059 169.084 187.691C168.108 188.322 167.189 188.724 166.443 189.069C165.697 189.356 165.065 189.586 164.663 189.7C164.261 189.815 164.031 189.873 164.031 189.873C164.031 189.873 164.261 189.815 164.663 189.643C165.065 189.471 165.639 189.241 166.386 188.897C167.075 188.495 167.993 188.035 168.855 187.346C169.773 186.657 170.692 185.796 171.554 184.762C172.415 183.729 173.219 182.465 173.85 181.03C174.482 179.594 174.999 178.044 175.458 176.378C175.918 174.713 176.205 172.933 176.549 171.153C176.722 170.234 176.894 169.316 177.066 168.397C177.296 167.478 177.525 166.559 177.87 165.64C178.617 163.803 179.937 162.253 181.315 161.047C182.694 159.783 184.187 158.75 185.392 157.544C186.656 156.396 187.632 155.075 188.263 153.697C188.436 153.352 188.551 153.008 188.665 152.663C188.723 152.491 188.78 152.319 188.838 152.146C188.895 151.974 188.895 151.802 188.953 151.572C189.125 150.883 189.24 150.136 189.354 149.447C189.814 146.691 190.273 144.394 190.56 142.786C190.847 141.121 191.02 140.202 191.02 140.202Z" fill="#E2F5F3"/>
<path d="M170.121 206.87C170.121 206.87 190.449 209.282 200.268 186.255C208.25 167.536 224.5 164.55 223.983 163.057C223.409 161.564 168.284 160.243 170.121 206.87Z" fill="#1EC4B4"/>
<path d="M170.867 205.491C170.867 205.491 171.901 205.204 173.623 204.343C174.485 203.941 175.461 203.367 176.552 202.62C177.643 201.874 178.792 200.955 179.94 199.864C181.088 198.773 182.294 197.452 183.385 196.017C184.534 194.581 185.567 192.916 186.544 191.136C187.003 190.275 187.462 189.356 187.922 188.38C188.151 187.92 188.324 187.403 188.553 186.944C188.783 186.485 188.955 185.968 189.242 185.509C190.219 183.556 191.367 181.661 192.688 179.881C194.008 178.101 195.501 176.493 197.052 175C198.602 173.507 200.325 172.187 201.99 171.038C205.378 168.684 208.823 167.019 211.924 165.87C214.968 164.722 217.666 164.09 219.561 163.803C220.48 163.631 221.227 163.573 221.743 163.516C222.26 163.458 222.547 163.458 222.547 163.458C222.547 163.458 222.26 163.516 221.801 163.573C221.284 163.688 220.595 163.803 219.676 164.033C218.757 164.262 217.666 164.549 216.403 164.951C215.14 165.353 213.762 165.87 212.269 166.502C209.283 167.765 205.952 169.545 202.679 171.899C201.071 173.048 199.464 174.426 197.913 175.862C196.363 177.297 194.985 178.905 193.721 180.628C192.458 182.35 191.31 184.188 190.333 186.025C190.104 186.485 189.874 186.944 189.644 187.461C189.415 187.92 189.185 188.437 188.955 188.896C188.496 189.873 188.036 190.791 187.52 191.71C185.51 195.328 182.983 198.256 180.457 200.438C177.988 202.62 175.518 203.941 173.796 204.688C171.958 205.319 170.867 205.491 170.867 205.491Z" fill="#E2F5F3"/>
<path d="M145.773 196.074C145.773 196.074 139.284 187.575 147.094 178.79C154.903 170.004 147.611 168.569 155.88 160.472C164.148 152.375 158.119 148.643 162.426 137.331C162.426 137.331 164.206 143.475 166.847 147.322C171.384 153.868 170.522 160.529 167.766 167.592C163.689 177.986 176.494 186.829 167.307 197.739C158.119 208.649 145.773 196.074 145.773 196.074Z" fill="#1385B9"/>
<path d="M162.598 141.466C162.598 141.466 162.77 142.385 163.057 143.993C163.344 145.6 163.746 147.897 164.206 150.654C164.32 151.343 164.493 152.032 164.55 152.836C164.608 153.238 164.665 153.582 164.665 153.984C164.665 154.386 164.665 154.845 164.608 155.247C164.435 156.913 163.861 158.635 163 160.186C162.138 161.736 161.047 163.229 160.129 164.779C159.21 166.33 158.463 167.995 158.348 169.718C158.176 171.498 158.406 173.335 158.578 175.173C158.75 177.01 158.923 178.79 158.923 180.571C158.98 182.351 158.865 184.073 158.578 185.681C158.291 187.289 157.832 188.782 157.2 190.045C156.568 191.366 155.822 192.4 155.075 193.318C154.329 194.18 153.582 194.869 152.951 195.386C152.319 195.902 151.802 196.247 151.4 196.477C151.056 196.706 150.826 196.821 150.826 196.821C150.826 196.821 150.998 196.649 151.343 196.419C151.687 196.189 152.147 195.73 152.779 195.213C153.353 194.639 154.042 193.95 154.731 193.031C155.42 192.112 156.052 191.021 156.568 189.758C157.085 188.495 157.487 187.059 157.717 185.509C157.947 183.958 158.004 182.293 157.947 180.571C157.889 178.848 157.659 177.068 157.487 175.23C157.372 174.312 157.315 173.393 157.2 172.474C157.143 171.555 157.085 170.579 157.2 169.603C157.372 167.593 158.234 165.756 159.21 164.205C160.186 162.597 161.277 161.162 162.138 159.726C163 158.233 163.631 156.74 163.804 155.19C163.861 154.788 163.861 154.443 163.861 154.099C163.861 153.927 163.861 153.754 163.861 153.525C163.861 153.352 163.861 153.123 163.804 152.95C163.804 152.261 163.631 151.515 163.574 150.826C163.229 148.07 163 145.715 162.827 144.107C162.655 142.385 162.598 141.466 162.598 141.466Z" fill="#E2F5F3"/>
<path d="M143.329 151.675H94.2324V160.173H143.329V151.675Z" fill="#F7941E"/>
<path d="M143.329 151.675H94.2324V152.996H143.329V151.675Z" fill="#F7721E"/>
<path d="M97.4492 152.938H96.3008V158.853H97.4492V152.938Z" fill="#F7B61E"/>
<path d="M100.895 152.938H99.7461V158.853H100.895V152.938Z" fill="#F7B61E"/>
<path d="M104.281 152.938H103.133V158.853H104.281V152.938Z" fill="#F7B61E"/>
<path d="M107.729 152.938H106.58V158.853H107.729V152.938Z" fill="#F7B61E"/>
<path d="M111.115 152.938H109.967V158.853H111.115V152.938Z" fill="#F7B61E"/>
<path d="M114.561 152.938H113.412V158.853H114.561V152.938Z" fill="#F7B61E"/>
<path d="M118.006 152.938H116.857V158.853H118.006V152.938Z" fill="#F7B61E"/>
<path d="M121.395 152.938H120.246V158.853H121.395V152.938Z" fill="#F7B61E"/>
<path d="M124.84 152.938H123.691V158.853H124.84V152.938Z" fill="#F7B61E"/>
<path d="M128.227 152.938H127.078V158.853H128.227V152.938Z" fill="#F7B61E"/>
<path d="M131.672 152.938H130.523V158.853H131.672V152.938Z" fill="#F7B61E"/>
<path d="M135.061 152.938H133.912V158.853H135.061V152.938Z" fill="#F7B61E"/>
<path d="M138.506 152.938H137.357V158.853H138.506V152.938Z" fill="#F7B61E"/>
<path d="M141.893 152.938H140.744V158.853H141.893V152.938Z" fill="#F7B61E"/>
<path d="M146.946 160.174H97.8496V168.672H146.946V160.174Z" fill="#F7941E"/>
<path d="M146.946 160.174H97.8496V161.494H146.946V160.174Z" fill="#F7721E"/>
<path d="M101.064 161.493H99.916V167.408H101.064V161.493Z" fill="#F7B61E"/>
<path d="M104.51 161.493H103.361V167.408H104.51V161.493Z" fill="#F7B61E"/>
<path d="M107.898 161.493H106.75V167.408H107.898V161.493Z" fill="#F7B61E"/>
<path d="M111.344 161.493H110.195V167.408H111.344V161.493Z" fill="#F7B61E"/>
<path d="M114.789 161.493H113.641V167.408H114.789V161.493Z" fill="#F7B61E"/>
<path d="M118.178 161.493H117.029V167.408H118.178V161.493Z" fill="#F7B61E"/>
<path d="M121.621 161.493H120.473V167.408H121.621V161.493Z" fill="#F7B61E"/>
<path d="M125.012 161.493H123.863V167.408H125.012V161.493Z" fill="#F7B61E"/>
<path d="M128.455 161.493H127.307V167.408H128.455V161.493Z" fill="#F7B61E"/>
<path d="M131.844 161.493H130.695V167.408H131.844V161.493Z" fill="#F7B61E"/>
<path d="M135.287 161.493H134.139V167.408H135.287V161.493Z" fill="#F7B61E"/>
<path d="M138.678 161.493H137.529V167.408H138.678V161.493Z" fill="#F7B61E"/>
<path d="M142.121 161.493H140.973V167.408H142.121V161.493Z" fill="#F7B61E"/>
<path d="M145.51 161.493H144.361V167.408H145.51V161.493Z" fill="#F7B61E"/>
<path d="M141.606 168.729H92.5098V177.228H141.606V168.729Z" fill="#F7941E"/>
<path d="M141.606 168.729H92.5098V170.05H141.606V168.729Z" fill="#F7721E"/>
<path d="M95.7246 169.993H94.5762V175.907H95.7246V169.993Z" fill="#F7B61E"/>
<path d="M99.1699 169.993H98.0215V175.907H99.1699V169.993Z" fill="#F7B61E"/>
<path d="M102.559 169.993H101.41V175.907H102.559V169.993Z" fill="#F7B61E"/>
<path d="M106.004 169.993H104.855V175.907H106.004V169.993Z" fill="#F7B61E"/>
<path d="M109.391 169.993H108.242V175.907H109.391V169.993Z" fill="#F7B61E"/>
<path d="M112.836 169.993H111.688V175.907H112.836V169.993Z" fill="#F7B61E"/>
<path d="M116.225 169.993H115.076V175.907H116.225V169.993Z" fill="#F7B61E"/>
<path d="M119.67 169.993H118.521V175.907H119.67V169.993Z" fill="#F7B61E"/>
<path d="M123.059 169.993H121.91V175.907H123.059V169.993Z" fill="#F7B61E"/>
<path d="M126.502 169.993H125.354V175.907H126.502V169.993Z" fill="#F7B61E"/>
<path d="M129.891 169.993H128.742V175.907H129.891V169.993Z" fill="#F7B61E"/>
<path d="M133.336 169.993H132.188V175.907H133.336V169.993Z" fill="#F7B61E"/>
<path d="M136.783 169.993H135.635V175.907H136.783V169.993Z" fill="#F7B61E"/>
<path d="M140.17 169.993H139.021V175.907H140.17V169.993Z" fill="#F7B61E"/>
<path d="M145.338 177.228H96.2422V185.726H145.338V177.228Z" fill="#F7941E"/>
<path d="M145.338 177.228H96.2422V178.549H145.338V177.228Z" fill="#F7721E"/>
<path d="M99.5156 178.549H98.3672V184.463H99.5156V178.549Z" fill="#F7B61E"/>
<path d="M102.904 178.549H101.756V184.463H102.904V178.549Z" fill="#F7B61E"/>
<path d="M106.348 178.549H105.199V184.463H106.348V178.549Z" fill="#F7B61E"/>
<path d="M109.736 178.549H108.588V184.463H109.736V178.549Z" fill="#F7B61E"/>
<path d="M113.18 178.549H112.031V184.463H113.18V178.549Z" fill="#F7B61E"/>
<path d="M116.627 178.549H115.479V184.463H116.627V178.549Z" fill="#F7B61E"/>
<path d="M120.014 178.549H118.865V184.463H120.014V178.549Z" fill="#F7B61E"/>
<path d="M123.459 178.549H122.311V184.463H123.459V178.549Z" fill="#F7B61E"/>
<path d="M126.848 178.549H125.699V184.463H126.848V178.549Z" fill="#F7B61E"/>
<path d="M130.293 178.549H129.145V184.463H130.293V178.549Z" fill="#F7B61E"/>
<path d="M133.68 178.549H132.531V184.463H133.68V178.549Z" fill="#F7B61E"/>
<path d="M137.127 178.549H135.979V184.463H137.127V178.549Z" fill="#F7B61E"/>
<path d="M140.514 178.549H139.365V184.463H140.514V178.549Z" fill="#F7B61E"/>
<path d="M143.961 178.549H142.812V184.463H143.961V178.549Z" fill="#F7B61E"/>
<path d="M149.702 185.784H100.605V194.282H149.702V185.784Z" fill="#F7941E"/>
<path d="M149.702 185.784H100.605V187.104H149.702V185.784Z" fill="#F7721E"/>
<path d="M103.822 187.047H102.674V192.962H103.822V187.047Z" fill="#F7B61E"/>
<path d="M107.268 187.047H106.119V192.962H107.268V187.047Z" fill="#F7B61E"/>
<path d="M110.654 187.047H109.506V192.962H110.654V187.047Z" fill="#F7B61E"/>
<path d="M114.1 187.047H112.951V192.962H114.1V187.047Z" fill="#F7B61E"/>
<path d="M117.543 187.047H116.395V192.962H117.543V187.047Z" fill="#F7B61E"/>
<path d="M120.934 187.047H119.785V192.962H120.934V187.047Z" fill="#F7B61E"/>
<path d="M124.379 187.047H123.23V192.962H124.379V187.047Z" fill="#F7B61E"/>
<path d="M127.766 187.047H126.617V192.962H127.766V187.047Z" fill="#F7B61E"/>
<path d="M131.211 187.047H130.062V192.962H131.211V187.047Z" fill="#F7B61E"/>
<path d="M134.6 187.047H133.451V192.962H134.6V187.047Z" fill="#F7B61E"/>
<path d="M138.045 187.047H136.896V192.962H138.045V187.047Z" fill="#F7B61E"/>
<path d="M141.432 187.047H140.283V192.962H141.432V187.047Z" fill="#F7B61E"/>
<path d="M144.879 187.047H143.73V192.962H144.879V187.047Z" fill="#F7B61E"/>
<path d="M148.324 187.047H147.176V192.962H148.324V187.047Z" fill="#F7B61E"/>
<path d="M141.375 194.282H92.2793V202.781H141.375V194.282Z" fill="#F7941E"/>
<path d="M141.375 194.282H92.2793V195.603H141.375V194.282Z" fill="#F7721E"/>
<path d="M95.5508 195.604H94.4023V201.518H95.5508V195.604Z" fill="#F7B61E"/>
<path d="M98.9395 195.604H97.791V201.518H98.9395V195.604Z" fill="#F7B61E"/>
<path d="M102.387 195.604H101.238V201.518H102.387V195.604Z" fill="#F7B61E"/>
<path d="M105.773 195.604H104.625V201.518H105.773V195.604Z" fill="#F7B61E"/>
<path d="M109.217 195.604H108.068V201.518H109.217V195.604Z" fill="#F7B61E"/>
<path d="M112.605 195.604H111.457V201.518H112.605V195.604Z" fill="#F7B61E"/>
<path d="M116.053 195.604H114.904V201.518H116.053V195.604Z" fill="#F7B61E"/>
<path d="M119.439 195.604H118.291V201.518H119.439V195.604Z" fill="#F7B61E"/>
<path d="M122.885 195.604H121.736V201.518H122.885V195.604Z" fill="#F7B61E"/>
<path d="M126.271 195.604H125.123V201.518H126.271V195.604Z" fill="#F7B61E"/>
<path d="M129.719 195.604H128.57V201.518H129.719V195.604Z" fill="#F7B61E"/>
<path d="M133.164 195.604H132.016V201.518H133.164V195.604Z" fill="#F7B61E"/>
<path d="M136.553 195.604H135.404V201.518H136.553V195.604Z" fill="#F7B61E"/>
<path d="M139.996 195.604H138.848V201.518H139.996V195.604Z" fill="#F7B61E"/>
<path d="M99.8568 53.4735C99.8568 53.4735 93.0235 46.2383 98.7658 40.4386C98.7658 40.4386 98.1341 32.3421 109.331 33.3182C120.529 34.2944 122.252 40.6109 122.252 40.6109C122.252 40.6109 128.683 42.391 126.845 50.6598C125.008 58.8712 118.404 61.7423 118.404 61.7423L116.509 55.1962L99.8568 53.4735Z" fill="#083A51"/>
<path d="M115.017 212.132L113.122 205.413H107.207L99.168 210.007V212.132H115.017Z" fill="#083A51"/>
<path d="M107.207 205.413L106.805 194.733H112.891L113.121 205.413H107.207Z" fill="#FABB86"/>
<path d="M109.963 207.251H106.575C106.345 207.251 106.115 207.078 106.115 206.791C106.115 206.504 106.288 206.332 106.575 206.332H109.963C110.192 206.332 110.422 206.504 110.422 206.791C110.422 207.078 110.192 207.251 109.963 207.251Z" fill="white"/>
<path d="M108.298 208.629H104.911C104.681 208.629 104.451 208.457 104.451 208.17C104.451 207.883 104.623 207.71 104.911 207.71H108.298C108.528 207.71 108.758 207.883 108.758 208.17C108.758 208.457 108.586 208.629 108.298 208.629Z" fill="white"/>
<path d="M49.1529 203.805L35.1992 208.284V210.466H55.5267L55.0674 203.805H49.1529Z" fill="#083A51"/>
<path d="M44.9037 206.619C44.9611 206.619 45.0186 206.619 45.076 206.562C45.3057 206.447 45.4205 206.217 45.3631 205.93L44.7889 204.437C44.674 204.207 44.4443 204.092 44.1572 204.15C43.9275 204.265 43.8127 204.494 43.8701 204.782L44.4443 206.275C44.5592 206.504 44.7314 206.619 44.9037 206.619Z" fill="white"/>
<path d="M46.6849 206.102C46.7424 206.102 46.7998 206.102 46.8572 206.045C47.0869 205.93 47.2018 205.7 47.1443 205.413L46.5701 203.92C46.4553 203.69 46.2256 203.575 45.9385 203.633C45.7088 203.748 45.5939 203.977 45.6514 204.265L46.2256 205.758C46.283 205.987 46.5127 206.102 46.6849 206.102Z" fill="white"/>
<path d="M49.1523 203.805L51.6215 194.732H57.6508L55.0668 203.805H49.1523Z" fill="#FABB86"/>
<path d="M136.492 128.065L114.499 118.877H97.1573C97.1573 118.877 85.8451 138.229 92.1616 153.618H123.686C129.256 153.618 134.826 148.622 136.205 143.109C137.927 136.047 136.492 128.065 136.492 128.065Z" fill="#F7721E"/>
<path d="M98.65 131.74C98.65 131.74 97.2719 136.276 93.6543 137.023" stroke="#77525A" stroke-miterlimit="10"/>
<path d="M71.6619 136.161C61.5556 136.161 59.8903 144.372 59.8903 144.372L48.0039 196.167L59.5458 199.153L75.3369 153.503H108.47V136.161H71.6619Z" fill="#B75E0D"/>
<path d="M124.317 131.74C124.317 131.74 123.513 136.793 129.715 139.09" stroke="#F0FFFD" stroke-width="1.5" stroke-miterlimit="10"/>
<path d="M107.092 131.74V141.444" stroke="#77525A" stroke-miterlimit="10"/>
<path d="M109.504 136.161C104.221 136.161 99.9719 140.64 100.316 145.923L104.221 198.235H116.797L116.739 153.56H126.329C135.574 153.56 137.067 147.301 137.067 139.606V136.161H109.504Z" fill="#F7721E"/>
<path d="M93.1387 128.065C98.5938 101.88 94.8613 70.2981 94.8613 70.2981L114.27 67.1399L134.54 70.2981L136.435 128.065H93.1387Z" fill="#F0FFFD"/>
<path d="M124.205 82.9883L127.191 107.91L136.034 103.316L134.311 95.4489L128.397 85.5723L124.205 82.9883Z" fill="#B75E0D"/>
<path d="M110.192 76.0401C115.934 77.0738 118.748 71.6761 118.805 67.7139L114.326 67.0823L106.115 68.403C106.057 68.4604 103.818 74.8917 110.192 76.0401Z" fill="#F7721E"/>
<path d="M120.127 56.2868L115.475 71.1018C114.959 72.767 113.408 73.9155 111.628 73.9155C109.331 73.9155 107.494 71.9631 107.609 69.6662L107.896 63.1775L120.127 56.2868Z" fill="#FABB86"/>
<path d="M107.609 68.2307C116.567 67.5991 118.692 59.0431 118.692 59.0431L116.108 58.5837L107.839 63.2924L107.609 68.2307Z" fill="#EF8950"/>
<path d="M120.127 56.287C120.127 56.287 123.63 55.4257 123.17 51.808C122.711 48.1904 119.84 48.6498 118.864 50.6022C118.462 51.4635 118.232 52.2674 118.174 53.0139C118.174 53.0139 115.82 46.7549 113.466 45.3193C111.112 43.8838 102.556 44.458 100.833 45.1471C98.938 45.951 99.1102 60.9382 104.278 64.7281C109.446 68.518 118.117 62.1441 120.127 56.287Z" fill="#FABB86"/>
<path d="M99.7411 42.7351C101.464 41.9886 112.431 41.9886 114.786 43.4816C117.14 44.9746 118.116 53.0711 118.116 53.0711C118.116 53.0711 116.049 45.2042 108.929 47.6734C105.598 48.8219 101.521 48.0179 100.43 45.6636C100.545 45.4339 99.5689 42.7925 99.7411 42.7351Z" fill="#083A51"/>
<path d="M106.06 53.071C106.06 53.071 104.223 55.8847 103.878 56.746C103.533 57.6074 106.06 57.4925 106.06 57.4925V53.071Z" fill="#EF8950"/>
<path d="M119.84 51.6351C119.84 51.6351 120.644 50.6015 121.39 50.8886C122.137 51.1757 122.366 53.7597 120.816 54.621C120.816 54.621 121.677 52.9558 121.218 52.0945C120.759 51.2331 119.84 51.6351 119.84 51.6351Z" fill="#EF8950"/>
<path d="M55.814 86.0894L48.1194 80.8065C47.66 80.462 47.5452 79.8303 47.8323 79.371C48.1768 78.9116 48.8085 78.7967 49.2679 79.0838L56.9625 84.3667C57.4218 84.7112 57.5367 85.3429 57.2496 85.8022C56.905 86.319 56.2734 86.4339 55.814 86.0894Z" fill="#FABB86"/>
<path d="M54.7214 87.7549L47.0843 82.2997C46.6249 81.9552 46.51 81.3236 46.7972 80.8642C47.1417 80.4048 47.7733 80.29 48.2327 80.5771L55.8699 86.0322C56.3293 86.3767 56.4441 87.0084 56.157 87.4677C55.8125 87.9271 55.1808 88.042 54.7214 87.7549Z" fill="#FABB86"/>
<path d="M53.7468 89.5348L46.1097 84.0796C45.6503 83.7351 45.5354 83.1035 45.8225 82.6441C46.1671 82.1847 46.7987 82.0699 47.2581 82.357L54.8953 87.8121C55.3547 88.1566 55.4695 88.7883 55.1824 89.2477C54.8379 89.707 54.2062 89.8219 53.7468 89.5348Z" fill="#FABB86"/>
<path d="M52.8269 91.2578L45.1897 85.8027C44.7304 85.4581 44.6155 84.8265 44.9026 84.3671C45.2472 83.9077 45.8788 83.7929 46.3382 84.08L53.9754 89.5351C54.4347 89.8797 54.5496 90.5113 54.2625 90.9707C53.9179 91.4875 53.2863 91.6023 52.8269 91.2578Z" fill="#FABB86"/>
<path d="M58.2258 83.1607L60.8098 87.8119L56.9625 93.1522C56.9625 93.1522 55.1824 92.9225 52.9429 91.4295C52.9429 91.4295 52.8281 89.9365 53.23 88.9029C53.6894 87.8119 55.5844 84.7111 55.5844 84.7111C55.5844 84.7111 56.6754 83.2755 56.9051 83.2755C57.1922 83.1607 58.2258 83.1607 58.2258 83.1607Z" fill="#FABB86"/>
<path d="M103.247 79.3136L92.681 97.1145L80.9668 90.7406L94.863 70.2983L103.247 79.3136Z" fill="#F0FFFD"/>
<path d="M83.7207 89.0753L93.138 94.0711" stroke="#F7721E" stroke-miterlimit="10"/>
<path d="M95.9516 86.4341L92.6211 97.1147L96.0664 91.315C96.0664 89.6498 96.009 87.9845 95.9516 86.4341Z" fill="#B75E0D"/>
<path d="M57.9946 85.9171C57.9946 85.9171 77.9776 98.7797 78.724 98.1481C79.4705 97.5164 82.9159 91.7742 82.9159 91.7742L91.2421 96.3106C91.2421 96.3106 87.7968 102.11 84.9831 105.096C82.1694 108.082 79.4131 108.025 77.1736 106.991L54.6641 91.3722L57.9946 85.9171Z" fill="#FABB86"/>
<path d="M89.2325 99.4687L82.916 91.7741L91.2423 96.3105C91.1848 96.3105 90.3809 97.6886 89.2325 99.4687Z" fill="#EF8950"/>
<path d="M134.425 131.74H93.5977" stroke="#F0FFFD" stroke-width="1.5" stroke-miterlimit="10"/>
<path d="M56.7319 84.4242L54.4925 82.8738C54.0331 82.5292 53.9182 81.8976 54.2054 81.4382C54.5499 80.9788 55.1815 80.864 55.6409 81.1511L57.8804 82.7015C58.3398 83.046 58.4546 83.6777 58.1675 84.1371C57.823 84.5964 57.1913 84.7113 56.7319 84.4242Z" fill="#FABB86"/>
<path d="M102.152 54.7935C102.628 54.7935 103.014 54.0994 103.014 53.2431C103.014 52.3868 102.628 51.6927 102.152 51.6927C101.677 51.6927 101.291 52.3868 101.291 53.2431C101.291 54.0994 101.677 54.7935 102.152 54.7935Z" fill="#083A51"/>
<path d="M109.389 54.7935C109.864 54.7935 110.25 54.0994 110.25 53.2431C110.25 52.3868 109.864 51.6927 109.389 51.6927C108.913 51.6927 108.527 52.3868 108.527 53.2431C108.527 54.0994 108.913 54.7935 109.389 54.7935Z" fill="#083A51"/>
<path d="M100.316 50.3731C100.316 50.3731 100.489 50.1434 100.833 49.9712C101.178 49.7989 101.695 49.6841 102.211 49.7989C102.326 49.7989 102.441 49.8563 102.613 49.9137C102.728 49.9712 102.843 50.0286 102.958 50.0286C103.073 50.086 103.188 50.1434 103.245 50.2009C103.36 50.2583 103.417 50.3157 103.475 50.4306C103.589 50.5454 103.704 50.7177 103.762 50.7751C103.819 50.8899 103.819 50.9474 103.819 50.9474C103.819 50.9474 103.762 50.9474 103.647 50.9474C103.532 50.9474 103.417 50.8899 103.245 50.8899C103.073 50.8325 102.9 50.8325 102.671 50.7751C102.498 50.7177 102.269 50.7177 102.039 50.6603C101.637 50.6028 101.235 50.5454 100.891 50.488C100.604 50.4306 100.316 50.3731 100.316 50.3731Z" fill="#083A51"/>
<path d="M111.168 50.3731C111.168 50.3731 110.88 50.4306 110.536 50.488C110.191 50.5454 109.789 50.6028 109.388 50.6603C109.158 50.7177 108.986 50.7177 108.756 50.7751C108.584 50.8325 108.354 50.8325 108.182 50.8899C108.009 50.9474 107.837 50.9474 107.78 50.9474C107.665 50.9474 107.607 50.9474 107.607 50.9474C107.607 50.9474 107.607 50.8899 107.665 50.7751C107.722 50.6602 107.837 50.5454 107.952 50.4306C108.009 50.3731 108.124 50.2583 108.182 50.2009C108.296 50.1434 108.354 50.086 108.469 50.0286C108.584 49.9712 108.698 49.9137 108.813 49.9137C108.928 49.8563 109.043 49.8563 109.215 49.7989C109.732 49.6841 110.249 49.7989 110.593 49.9712C110.995 50.1434 111.168 50.3731 111.168 50.3731Z" fill="#083A51"/>
<path d="M56.4464 84.4819L52.5417 83.1612C52.5417 83.1612 49.9003 83.3909 46.9143 83.4483C46.4549 83.4483 46.053 83.5057 45.7085 83.5057C45.7659 83.7354 45.8807 83.9651 46.1104 84.0799C45.7085 83.9077 45.1917 84.0799 44.9045 84.4245C44.56 84.8839 44.7323 85.5155 45.1917 85.86L48.6944 88.3292C53.3456 87.5827 56.4464 84.4819 56.4464 84.4819Z" fill="#EF8950"/>
<path d="M48.006 86.2618C59.2643 86.2618 68.391 77.1351 68.391 65.8768C68.391 54.6185 59.2643 45.4919 48.006 45.4919C36.7477 45.4919 27.6211 54.6185 27.6211 65.8768C27.6211 77.1351 36.7477 86.2618 48.006 86.2618Z" fill="#F7941E"/>
<path d="M48.0049 85.7452C58.9777 85.7452 67.873 76.8499 67.873 65.8771C67.873 54.9042 58.9777 46.0089 48.0049 46.0089C37.032 46.0089 28.1367 54.9042 28.1367 65.8771C28.1367 76.8499 37.032 85.7452 48.0049 85.7452Z" fill="#F7B61E"/>
<path d="M48.0052 81.6106C56.6947 81.6106 63.739 74.5664 63.739 65.8769C63.739 57.1874 56.6947 50.1432 48.0052 50.1432C39.3157 50.1432 32.2715 57.1874 32.2715 65.8769C32.2715 74.5664 39.3157 81.6106 48.0052 81.6106Z" fill="#F7941E"/>
<path d="M54.5582 61.1385C54.8065 61.1385 55.0133 61.221 55.1788 61.3859C55.3443 61.5344 55.427 61.7323 55.427 61.9797C55.427 62.227 55.3443 62.4332 55.1788 62.5981C55.0133 62.7466 54.8065 62.8208 54.5582 62.8208H52.8207C52.738 64.0742 52.2995 65.0967 51.5052 65.8884C50.7109 66.68 49.6518 67.1748 48.328 67.3727C48.7251 67.5047 49.0975 67.7191 49.445 68.0159C49.809 68.3128 50.1896 68.7169 50.5868 69.2281L53.5157 73.1121C53.7143 73.376 53.8136 73.6316 53.8136 73.879C53.8136 74.1759 53.6895 74.4398 53.4413 74.6707C53.193 74.8851 52.9035 74.9923 52.5725 74.9923C52.1423 74.9923 51.7865 74.8109 51.5052 74.448L47.5834 69.2281C47.1366 68.6179 46.7063 68.1973 46.2926 67.9664C45.8955 67.7356 45.3577 67.6201 44.6792 67.6201H42.2963C41.8992 67.6201 41.5931 67.5294 41.3779 67.348C41.1794 67.1666 41.0801 66.9109 41.0801 66.5811C41.0801 66.2512 41.1794 65.9956 41.3779 65.8142C41.5931 65.6328 41.8992 65.542 42.2963 65.542H46.6153C48.8824 65.542 50.1152 64.635 50.3137 62.8208H41.9488C41.7006 62.8208 41.4938 62.7466 41.3283 62.5981C41.1628 62.4332 41.0801 62.227 41.0801 61.9797C41.0801 61.7323 41.1628 61.5344 41.3283 61.3859C41.4938 61.221 41.7006 61.1385 41.9488 61.1385H50.1896C49.7925 59.7532 48.601 59.0605 46.6153 59.0605H41.9488C41.7006 59.0605 41.4938 58.9863 41.3283 58.8378C41.1628 58.6729 41.0801 58.4667 41.0801 58.2194C41.0801 57.972 41.1628 57.7741 41.3283 57.6256C41.4938 57.4607 41.7006 57.3782 41.9488 57.3782H54.5582C54.8065 57.3782 55.0133 57.4607 55.1788 57.6256C55.3443 57.7741 55.427 57.972 55.427 58.2194C55.427 58.4667 55.3443 58.6729 55.1788 58.8378C55.0133 58.9863 54.8065 59.0605 54.5582 59.0605H51.53C52.1092 59.5553 52.498 60.2479 52.6966 61.1385H54.5582Z" fill="#FFF2E3"/>
<path d="M61.4982 65.8769C61.4982 74.2032 55.0669 80.979 46.8555 81.5532C47.2 81.5532 47.602 81.6106 47.9465 81.6106C56.6173 81.6106 63.6802 74.5477 63.6802 65.8769C63.6802 57.2061 56.6173 50.1432 47.9465 50.1432C47.602 50.1432 47.2 50.1432 46.8555 50.2006C55.0669 50.7748 61.4982 57.5507 61.4982 65.8769Z" fill="#F7721E"/>
<path d="M5.05305 19.8817C0.574105 24.3606 2.18194 33.3185 8.67067 39.8073C15.1594 46.296 24.1173 47.9612 28.5962 43.4249L31.6396 40.3815L8.03902 16.7809L5.05305 19.8817Z" fill="#F7941E"/>
<path d="M31.7151 40.3242C36.2225 35.8169 34.6046 26.8911 28.1014 20.388C21.5983 13.8848 12.6725 12.2669 8.16517 16.7743C3.65782 21.2816 5.27574 30.2074 11.7789 36.7105C18.282 43.2137 27.2078 44.8316 31.7151 40.3242Z" fill="#F7941E"/>
<path d="M31.4304 40.0398C35.8032 35.667 34.2035 26.9776 27.8573 20.6314C21.5111 14.2852 12.8217 12.6855 8.4489 17.0583C4.0761 21.4311 5.67584 30.1205 12.022 36.4667C18.3682 42.8129 27.0576 44.4126 31.4304 40.0398Z" fill="#F7B61E"/>
<path d="M29.0365 37.6447C32.5124 34.1689 31.258 27.2791 26.2349 22.256C21.2118 17.2329 14.3221 15.9786 10.8463 19.4544C7.37044 22.9302 8.62477 29.82 13.6479 34.8431C18.671 39.8662 25.5607 41.1205 29.0365 37.6447Z" fill="#F7941E"/>
<path d="M22.6034 24.4947C22.7387 24.4167 22.8774 24.3965 23.0194 24.4343C23.1563 24.4631 23.2636 24.545 23.3414 24.6798C23.4193 24.8146 23.439 24.9529 23.4008 25.0949C23.3573 25.2278 23.2679 25.3333 23.1327 25.4114L22.1859 25.958C22.5351 26.6671 22.6179 27.3622 22.4341 28.0434C22.2504 28.7247 21.8289 29.3275 21.1698 29.8518C21.4278 29.7988 21.6981 29.7984 21.9808 29.8509C22.2726 29.8981 22.6071 29.9986 22.9844 30.1522L25.8023 31.3472C25.9935 31.4285 26.128 31.5365 26.2058 31.6713C26.2992 31.8331 26.3146 32.0159 26.252 32.2198C26.1842 32.4148 26.0601 32.5643 25.8798 32.6684C25.6454 32.8037 25.3944 32.8168 25.127 32.7076L21.3478 31.0971C20.9124 30.9051 20.5456 30.8113 20.2476 30.8157C19.9585 30.8148 19.6291 30.9211 19.2594 31.1345L17.961 31.8842C17.7446 32.0091 17.5492 32.056 17.375 32.0248C17.2097 31.9884 17.0752 31.8804 16.9714 31.7006C16.8676 31.5209 16.8413 31.3504 16.8924 31.189C16.9526 31.0225 17.0908 30.8768 17.3072 30.7518L19.6607 29.3931C20.896 28.6799 21.2824 27.7977 20.8198 26.7467L16.2618 29.3783C16.1265 29.4564 15.9905 29.481 15.8536 29.4522C15.7115 29.4144 15.6016 29.3281 15.5238 29.1933C15.4459 29.0585 15.4288 28.9246 15.4722 28.7917C15.5105 28.6498 15.5973 28.5397 15.7325 28.4617L20.223 25.8691C19.5707 25.2392 18.7036 25.2365 17.6216 25.8612L15.0788 27.3293C14.9435 27.4074 14.8075 27.432 14.6706 27.4032C14.5286 27.3654 14.4186 27.2791 14.3408 27.1443C14.263 27.0095 14.2458 26.8756 14.2893 26.7427C14.3275 26.6008 14.4143 26.4908 14.5496 26.4127L21.4205 22.4458C21.5557 22.3677 21.6944 22.3475 21.8364 22.3853C21.9733 22.4142 22.0806 22.496 22.1585 22.6308C22.2363 22.7656 22.2561 22.9039 22.2178 23.0459C22.1743 23.1788 22.0849 23.2843 21.9497 23.3624L20.2996 24.3151C20.7708 24.4025 21.2007 24.6576 21.589 25.0804L22.6034 24.4947Z" fill="#FFF2E3"/>
<path d="M25.3224 23.1541C30.1459 27.9776 31.4666 34.4663 28.538 38.0265C28.7103 37.9116 28.8826 37.7394 28.9974 37.6245C32.4428 34.1792 31.2369 27.2885 26.1837 22.2353C21.188 17.2396 14.2973 15.9763 10.7945 19.4216C10.6223 19.5939 10.5074 19.7088 10.3926 19.881C14.0102 16.9525 20.4989 18.3306 25.3224 23.1541Z" fill="#F7721E"/>
<path d="M61.2119 7.9372C64.1404 10.8657 63.0494 16.6654 58.8575 20.8572C54.6083 25.1065 48.8086 26.1401 45.9375 23.2115L43.9277 21.2018L59.2595 5.87L61.2119 7.9372Z" fill="#F7941E"/>
<path d="M56.786 18.8567C61.0018 14.6408 62.0562 8.86 59.141 5.9448C56.2258 3.0296 50.445 4.08398 46.2291 8.2998C42.0133 12.5156 40.9589 18.2965 43.8741 21.2117C46.7893 24.1269 52.5702 23.0725 56.786 18.8567Z" fill="#F7941E"/>
<path d="M56.6636 18.7351C60.7673 14.6314 61.7853 8.99596 58.9374 6.14804C56.0895 3.30011 50.454 4.31812 46.3503 8.42183C42.2466 12.5255 41.2286 18.1609 44.0766 21.0089C46.9245 23.8568 52.5599 22.8388 56.6636 18.7351Z" fill="#F7B61E"/>
<path d="M55.5687 17.6389C58.8203 14.3874 59.6383 9.93359 57.3959 7.69113C55.1534 5.44866 50.6996 6.26671 47.448 9.51828C44.1965 12.7698 43.3784 17.2236 45.6209 19.4661C47.8633 21.7086 52.3171 20.8905 55.5687 17.6389Z" fill="#F7941E"/>
<path d="M54.7028 13.3625C54.7753 13.4127 54.819 13.4786 54.834 13.5602C54.8523 13.637 54.8365 13.7115 54.7865 13.7838C54.7365 13.856 54.6707 13.8995 54.589 13.9142C54.5107 13.9241 54.4353 13.9039 54.3628 13.8538L53.8554 13.5025C53.5779 13.8518 53.2432 14.0618 52.8512 14.1324C52.4593 14.203 52.05 14.1334 51.6235 13.9236C51.7128 14.0424 51.7782 14.1802 51.8196 14.3372C51.8659 14.4974 51.8954 14.6923 51.908 14.9219L51.9782 16.6481C51.9828 16.7653 51.9601 16.86 51.9101 16.9322C51.8501 17.0189 51.7605 17.0709 51.6414 17.0881C51.5256 17.1005 51.4193 17.0733 51.3227 17.0064C51.1971 16.9194 51.1299 16.7945 51.1211 16.6317L51.031 14.3148C51.0239 14.0463 50.9833 13.8366 50.9092 13.6855C50.8399 13.5378 50.7062 13.3954 50.5081 13.2583L49.8123 12.7766C49.6963 12.6963 49.6252 12.608 49.5991 12.5115C49.5778 12.4184 49.6005 12.3237 49.6671 12.2274C49.7338 12.131 49.8145 12.0765 49.9091 12.0636C50.0086 12.0541 50.1163 12.0895 50.2323 12.1698L51.4934 13.0428C52.1554 13.5011 52.6987 13.4854 53.1234 12.9958L50.6809 11.305C50.6084 11.2548 50.563 11.1913 50.5447 11.1145C50.5297 11.0329 50.5472 10.956 50.5972 10.8838C50.6472 10.8115 50.7114 10.7705 50.7897 10.7606C50.8714 10.7459 50.9485 10.7636 51.0209 10.8138L53.4272 12.4795C53.5913 11.9947 53.3834 11.5516 52.8036 11.1502L51.441 10.207C51.3685 10.1568 51.3231 10.0933 51.3048 10.0165C51.2898 9.93492 51.3073 9.858 51.3573 9.78577C51.4073 9.71353 51.4715 9.67246 51.5498 9.66257C51.6315 9.64786 51.7085 9.66559 51.781 9.71577L55.4629 12.2645C55.5354 12.3147 55.5791 12.3806 55.5941 12.4622C55.6124 12.539 55.5966 12.6135 55.5466 12.6858C55.4966 12.758 55.4307 12.8015 55.3491 12.8162C55.2708 12.8261 55.1954 12.8059 55.1229 12.7558L54.2386 12.1436C54.3078 12.4052 54.2813 12.6861 54.1592 12.9862L54.7028 13.3625Z" fill="#FFF2E3"/>
<path d="M48.0052 10.0621C44.9044 13.1629 43.9857 17.4122 45.938 19.7091C45.8232 19.6517 45.7083 19.5368 45.6509 19.422C43.4114 17.1825 44.2153 12.7036 47.4884 9.43049C50.7615 6.15741 55.183 5.35351 57.4799 7.59298C57.5948 7.70783 57.6522 7.76525 57.767 7.88009C55.3553 6.04258 51.1635 6.96133 48.0052 10.0621Z" fill="#F7721E"/>
<path d="M109.39 59.6177C109.39 59.6177 109.218 60.0196 108.701 60.479C108.472 60.7087 108.127 60.881 107.725 61.0532C107.553 61.1106 107.323 61.2255 107.093 61.2255C106.864 61.2829 106.634 61.2829 106.404 61.2829C106.175 61.2829 105.945 61.2829 105.715 61.2255C105.486 61.2255 105.256 61.1106 105.084 61.0532C104.854 60.9958 104.682 60.881 104.567 60.7661C104.395 60.6513 104.28 60.5364 104.165 60.4216C104.05 60.3067 103.935 60.1919 103.878 60.077C103.82 59.9622 103.705 59.8473 103.705 59.7899C103.591 59.6177 103.533 59.5028 103.533 59.5028C103.533 59.5028 103.648 59.5028 103.82 59.5602C103.935 59.5602 103.993 59.6176 104.107 59.6751C104.222 59.7325 104.337 59.7325 104.509 59.7899C104.624 59.8473 104.796 59.9048 104.969 59.9048C105.141 59.9048 105.256 59.9622 105.428 60.0196C105.6 60.0196 105.773 60.077 105.945 60.077C106.117 60.077 106.289 60.077 106.462 60.077C106.634 60.077 106.806 60.077 106.979 60.0196C107.151 60.0196 107.323 59.9622 107.495 59.9622C107.84 59.9048 108.127 59.8473 108.414 59.7899C108.988 59.6751 109.39 59.6177 109.39 59.6177Z" fill="#EF8950"/>
<path d="M57.3055 35.7304C57.3055 35.7304 56.961 39.348 53.2285 39.8074C56.961 40.2094 57.3055 43.8844 57.3055 43.8844C57.3055 43.8844 57.65 40.2668 61.3825 39.8074C57.65 39.348 57.3055 35.7304 57.3055 35.7304Z" fill="#F7B61E"/>
<path d="M68.6731 32.9164C68.6731 32.9164 68.4434 35.443 65.8594 35.7301C68.4434 36.0172 68.6731 38.5438 68.6731 38.5438C68.6731 38.5438 68.9028 36.0172 71.4868 35.7301C68.9028 35.3856 68.6731 32.9164 68.6731 32.9164Z" fill="#F7B61E"/>
<path d="M70.6864 42.2764C70.6864 42.2764 70.227 47.4444 64.8867 48.076C70.227 48.6503 70.6864 53.8757 70.6864 53.8757C70.6864 53.8757 71.1457 48.7077 76.486 48.076C71.2032 47.4444 70.6864 42.2764 70.6864 42.2764Z" fill="#F7B61E"/>
<path d="M138.271 91.201L127.992 93.7276L130.002 103.776C129.198 104.293 108.756 119.166 108.756 119.166L112.546 124.506L136.778 110.036C139.649 108.313 141.142 104.925 140.453 101.594L138.271 91.201Z" fill="#FABB86"/>
<path d="M139.02 94.8757L135.575 91.8323L128.397 93.6124L128.225 95.048L129.603 101.996L139.25 95.8519L139.02 94.8757Z" fill="#EF8950"/>
<path d="M106.862 119.682L104.565 121.06C104.106 121.347 103.474 121.175 103.187 120.715C102.9 120.256 103.072 119.624 103.532 119.337L105.829 117.959C106.288 117.672 106.92 117.844 107.207 118.304C107.494 118.763 107.322 119.395 106.862 119.682Z" fill="#EF8950"/>
<path d="M134.54 70.2985L141.833 95.0476L127.19 98.3781L121.965 72.2509L134.54 70.2985Z" fill="#F0FFFD"/>
<path d="M128.971 95.048L139.422 92.6362" stroke="#F7721E" stroke-miterlimit="10"/>
<path d="M127.073 134.036H105.367V136.219H127.073V134.036Z" fill="black"/>
<path d="M61.5551 136.277H108.412L102.784 104.981H55.9277L61.5551 136.277Z" fill="black"/>
<path d="M60.1196 136.277H106.919L101.349 104.982H54.4922L60.1196 136.277Z" fill="#5E5E5E"/>
<path d="M60.1187 136.276H106.918L106.573 134.036H59.7168L60.1187 136.276Z" fill="#BDE8EF"/>
<path d="M80.7356 122.266C81.8138 122.266 82.6879 121.392 82.6879 120.313C82.6879 119.235 81.8138 118.361 80.7356 118.361C79.6573 118.361 78.7832 119.235 78.7832 120.313C78.7832 121.392 79.6573 122.266 80.7356 122.266Z" fill="#97CEDB"/>
<path d="M107.954 121.232L101.81 125.021C101.35 125.309 100.718 125.136 100.431 124.677C100.144 124.218 100.317 123.586 100.776 123.299L106.92 119.509C107.379 119.222 108.011 119.394 108.298 119.853C108.643 120.313 108.47 120.944 107.954 121.232Z" fill="#FABB86"/>
<path d="M108.356 119.854C108.298 119.739 108.183 119.624 108.068 119.566C108.183 119.968 108.011 120.485 107.609 120.715L101.465 124.505C101.12 124.735 100.661 124.677 100.316 124.447C100.316 124.562 100.374 124.62 100.431 124.677C100.718 125.136 101.35 125.309 101.809 125.022L107.954 121.232C108.47 120.945 108.643 120.313 108.356 119.854Z" fill="#EF8950"/>
<path d="M108.987 122.955L102.727 126.63C102.268 126.917 101.636 126.745 101.349 126.285C101.062 125.826 101.235 125.194 101.694 124.907L107.953 121.232C108.412 120.945 109.044 121.117 109.331 121.577C109.618 122.036 109.446 122.668 108.987 122.955Z" fill="#FABB86"/>
<path d="M109.33 121.519C109.273 121.404 109.158 121.289 109.043 121.174C109.273 121.633 109.1 122.208 108.641 122.437L102.382 126.112C102.038 126.342 101.636 126.285 101.291 126.055C101.291 126.112 101.348 126.112 101.348 126.17C101.636 126.629 102.267 126.801 102.727 126.514L108.986 122.839C109.445 122.667 109.617 122.035 109.33 121.519Z" fill="#EF8950"/>
<path d="M110.192 124.562L103.933 128.237C103.473 128.524 102.842 128.352 102.554 127.893C102.267 127.433 102.44 126.802 102.899 126.515L109.158 122.84C109.617 122.552 110.249 122.725 110.536 123.184C110.823 123.644 110.708 124.275 110.192 124.562Z" fill="#FABB86"/>
<path d="M110.536 123.127C110.479 123.012 110.421 122.955 110.306 122.898C110.421 123.3 110.249 123.759 109.847 124.046L103.588 127.721C103.186 127.951 102.727 127.893 102.439 127.606C102.439 127.721 102.497 127.779 102.554 127.893C102.841 128.353 103.473 128.525 103.932 128.238L110.191 124.563C110.708 124.276 110.823 123.644 110.536 123.127Z" fill="#EF8950"/>
<path d="M111.399 126.113L105.14 129.788C104.68 130.075 104.049 129.903 103.761 129.443C103.474 128.984 103.647 128.352 104.106 128.065L110.365 124.39C110.824 124.103 111.456 124.275 111.743 124.734C112.03 125.251 111.915 125.883 111.399 126.113Z" fill="#FABB86"/>
<path d="M111.398 126.112C111.858 125.825 112.03 125.194 111.743 124.734C111.686 124.677 111.628 124.562 111.571 124.505C111.686 124.964 111.8 125.883 111.398 126.112L104.852 129.328C104.45 129.558 103.991 129.5 103.646 129.213C103.646 129.328 103.704 129.386 103.761 129.5C104.048 129.96 104.68 130.132 105.139 129.845" fill="#EF8950"/>
<path d="M106.288 117.787L111.57 117.442L114.786 123.127C114.786 123.127 113.81 124.677 111.57 126.056C111.57 126.056 110.192 125.539 109.388 124.735C108.584 123.931 106.575 120.773 106.575 120.773C106.575 120.773 105.886 119.165 105.828 118.993C105.598 118.016 106.288 117.787 106.288 117.787Z" fill="#FABB86"/>
<path d="M58.3985 83.4478C58.3985 83.4478 57.6521 80.5192 56.8482 80.1173C56.1017 79.7153 55.0681 81.6103 56.4462 84.4814C57.8243 87.3525 58.3985 83.4478 58.3985 83.4478Z" fill="#FABB86"/>
<path d="M205.974 210.524C199.887 187.842 176.574 188.014 168.19 194.962C159.749 201.91 156.304 192.953 142.063 195.307C132.703 196.8 125.87 205.528 124.377 210.524H205.974Z" fill="#F3831D"/>
<path d="M205.973 210.524C202.183 196.513 191.847 191.23 182.545 190.828C182.545 190.828 193.455 195.078 190.986 210.524H205.973Z" fill="#B75E0D"/>
<path d="M160.266 197.605C158.428 197.318 156.533 196.629 154.236 195.997C154.294 195.997 161.931 198.351 161.931 210.525H170.946C170.946 210.525 168.305 201.395 160.266 197.605Z" fill="#B75E0D"/>
</svg>
