<svg width="37" height="41" viewBox="0 0 37 41" fill="none" xmlns="http://www.w3.org/2000/svg">
<g id="Group 7757">
<g id="Group">
<g id="Group_2">
<path id="Vector" d="M36.2309 20.5794C36.0151 20.4343 35.7412 20.406 35.5002 20.5041C34.0702 21.0864 32.5549 21.3816 30.9965 21.3816H28.7051C24.4295 21.3816 20.9512 24.86 20.9512 29.1355V31.1528C20.3538 31.6317 19.8391 32.0866 19.3887 32.535V20.4143C24.6252 20.0141 28.7637 15.6252 28.7637 10.2878C28.7637 4.68769 24.2077 0.131592 18.6074 0.131592C13.0073 0.131592 8.45117 4.68769 8.45117 10.2878C8.45117 15.6252 12.5896 20.0141 17.8262 20.4143V32.535C17.3757 32.0866 16.861 31.6318 16.2637 31.1528V29.1355C16.2637 24.86 12.7853 21.3816 8.50977 21.3816H6.21836C4.65984 21.3816 3.14461 21.0864 1.71453 20.5041C1.47359 20.406 1.19969 20.4342 0.983906 20.5794C0.768125 20.7246 0.638672 20.9676 0.638672 21.2277V22.7519C0.638672 28.0273 4.93047 32.3191 10.2059 32.3191H15.2202C16.3904 33.251 17.2091 34.067 17.8262 34.9171V35.4441H15.4824C13.596 35.4441 12.0177 36.7882 11.6548 38.5691H9.23242C8.80094 38.5691 8.45117 38.9189 8.45117 39.3503C8.45117 39.7818 8.80094 40.1316 9.23242 40.1316H27.9824C28.4138 40.1316 28.7637 39.7818 28.7637 39.3503C28.7637 38.9189 28.4138 38.5691 27.9824 38.5691H25.5601C25.1971 36.7882 23.6189 35.4441 21.7324 35.4441H19.3887V34.9172C20.0058 34.067 20.8245 33.251 21.9947 32.3191H27.009C32.2843 32.3191 36.5762 28.0273 36.5762 22.7519V21.2277C36.5762 20.9676 36.4467 20.7246 36.2309 20.5794ZM14.7012 29.9732C14.0542 29.5068 13.3701 29.0327 12.6617 28.5421C11.533 27.7604 10.3659 26.9521 9.11133 26.0163C8.76547 25.7583 8.27602 25.8295 8.01797 26.1754C7.76 26.5213 7.83117 27.0107 8.17711 27.2688C9.45367 28.221 10.6854 29.074 11.7722 29.8266C12.2291 30.1431 12.6757 30.4525 13.1077 30.7566H10.2059C5.79203 30.7566 2.20117 27.1657 2.20117 22.7519V22.3371C3.49586 22.7403 4.84258 22.9441 6.21836 22.9441H8.50977C11.9237 22.9441 14.7012 25.7215 14.7012 29.1355V29.9732ZM21.7324 37.0066C22.7509 37.0066 23.6193 37.6598 23.9418 38.5691H13.273C13.5955 37.6598 14.4639 37.0066 15.4824 37.0066H21.7324ZM18.6074 18.8816C13.8688 18.8816 10.0137 15.0264 10.0137 10.2878C10.0137 5.54925 13.8688 1.69409 18.6074 1.69409C23.346 1.69409 27.2012 5.54925 27.2012 10.2878C27.2012 15.0264 23.346 18.8816 18.6074 18.8816ZM35.0137 22.7519C35.0137 27.1657 31.4228 30.7566 27.009 30.7566H24.1072C24.5392 30.4525 24.9859 30.1429 25.443 29.8264C26.5296 29.0739 27.7613 28.221 29.0379 27.2688C29.3838 27.0108 29.4549 26.5213 29.197 26.1754C28.939 25.8296 28.4495 25.7582 28.1036 26.0163C26.8491 26.952 25.6821 27.7602 24.5534 28.5418C23.8449 29.0325 23.1607 29.5067 22.5138 29.9731V29.1355C22.5137 25.7215 25.2912 22.9441 28.7051 22.9441H30.9965C32.3723 22.9441 33.719 22.7403 35.0137 22.3371V22.7519Z" fill="#944DEE"/>
<path id="&#226;&#130;&#185;" d="M18.534 16.1316L15.7402 11.2941V10.154H16.6715C17.2199 10.154 17.6804 10.0359 18.0529 9.79966C18.4254 9.55316 18.6634 9.21422 18.7668 8.78285H15.7402V7.6428H18.7513C18.6582 7.25251 18.4668 6.92898 18.177 6.67221C17.8873 6.40517 17.4838 6.27165 16.9664 6.27165H15.7402V5.13159H22.7402V6.27165H20.3034C20.6656 6.66194 20.8932 7.11899 20.9864 7.6428H22.7402V8.78285H21.0174C20.9139 9.54289 20.619 10.1386 20.1327 10.57C19.6464 10.9911 19.0204 11.2787 18.2546 11.4327L21.2968 16.1316H18.534Z" fill="#944DEE" stroke="white" stroke-width="0.4"/>
</g>
</g>
</g>
</svg>
