<svg width="31" height="39" viewBox="0 0 31 39" fill="none" xmlns="http://www.w3.org/2000/svg">
<g id="productsyouhave-fixed-deposit">
<path d="M15.3292 29.8538L12.2418 24.9521V23.797H13.2709C13.877 23.797 14.3858 23.6773 14.7975 23.4379C15.2091 23.1881 15.4721 22.8447 15.5864 22.4076H12.2418V21.2525H15.5693C15.4664 20.857 15.2548 20.5292 14.9347 20.269C14.6145 19.9984 14.1686 19.8631 13.5968 19.8631H12.2418V18.708H19.9773V19.8631H17.2845C17.6847 20.2586 17.9362 20.7217 18.0391 21.2525H19.9773V22.4076H18.0735C17.9591 23.1777 17.6332 23.7813 17.0958 24.2184C16.5584 24.6451 15.8666 24.9365 15.0204 25.0926L18.3822 29.8538H15.3292Z" fill="#CD6200"/>
<path d="M16.1849 12.3814C16.0412 12.5194 15.8418 12.5989 15.6386 12.5989C15.4353 12.5989 15.236 12.5194 15.0923 12.3814C14.9486 12.2433 14.8659 12.0518 14.8659 11.8566C14.8659 11.6614 14.9486 11.4699 15.0923 11.3319C15.236 11.1938 15.4354 11.1144 15.6386 11.1144C15.8418 11.1144 16.0412 11.1938 16.1849 11.3319C16.3286 11.4699 16.4113 11.6614 16.4113 11.8566C16.4113 12.0518 16.3286 12.2433 16.1849 12.3814Z" fill="#CD6200"/>
<path fill-rule="evenodd" clip-rule="evenodd" d="M28.816 21.2048L22.9093 12.3102C23.7462 11.8878 24.3186 11.0447 24.3186 10.0752C24.3186 9.01407 23.6329 8.10439 22.6649 7.73201L24.4543 1.72261C24.5315 1.46334 24.4563 1.18434 24.2578 0.993661C23.0675 -0.149673 21.1308 -0.149673 19.9405 0.993661C19.6558 1.26717 19.2772 1.41777 18.8746 1.41777C18.4719 1.41777 18.0934 1.26717 17.8069 0.991879L17.8031 0.988242C16.617 -0.151231 14.6837 -0.154423 13.4928 0.981488L13.4706 1.00272C12.8829 1.56332 11.9282 1.56169 11.3426 0.999079L11.3369 0.993661C10.1466 -0.149673 8.20995 -0.149673 7.01963 0.993661C6.82105 1.18449 6.74586 1.46372 6.82321 1.72313L8.61646 7.7306C7.64643 8.10201 6.95882 9.01266 6.95882 10.0753C6.95882 11.0448 7.53122 11.8878 8.3682 12.3103L2.46139 21.2048C0.176237 24.6458 0.0314355 28.8369 2.07404 32.4159C4.11664 35.9949 7.87283 38.1316 12.1219 38.1316H19.1554C23.4044 38.1316 27.1606 35.9949 29.2033 32.4159C31.2459 28.8369 31.1011 24.6458 28.816 21.2048ZM10.2441 2.04332L10.2498 2.04874C11.436 3.18814 13.3693 3.19126 14.5601 2.0555L14.5822 2.03427C15.1699 1.47366 16.1246 1.47529 16.7121 2.03961L16.7159 2.04325C17.9062 3.18658 19.8429 3.18658 21.0332 2.04325C21.5175 1.57802 22.2521 1.49615 22.8245 1.79765L21.1113 7.55165H10.1708L8.45312 1.79757C9.02553 1.49615 9.75989 1.57817 10.2441 2.04332ZM27.8482 31.7023C26.0811 34.7986 22.8315 36.6472 19.1555 36.6472H12.122C8.44601 36.6472 5.19639 34.7987 3.42925 31.7023C1.66212 28.606 1.78737 24.9802 3.76429 22.0032L10.0095 12.5988H12.1616C12.5884 12.5988 12.9343 12.2665 12.9343 11.8566C12.9343 11.4467 12.5884 11.1144 12.1616 11.1144H9.58596C8.98944 11.1144 8.50419 10.6482 8.50419 10.0752C8.50419 9.50223 8.98944 9.03611 9.58596 9.03611H21.6914C22.2879 9.03611 22.7732 9.50223 22.7732 10.0752C22.7732 10.6482 22.2879 11.1144 21.6914 11.1144H19.1158C18.6891 11.1144 18.3431 11.4467 18.3431 11.8566C18.3431 12.2665 18.6891 12.5988 19.1158 12.5988H21.2678L27.5132 22.0032C29.4901 24.9801 29.6153 28.6059 27.8482 31.7023Z" fill="#CD6200"/>
</g>
</svg>
