<svg width="42" height="41" viewBox="0 0 42 41" fill="none" xmlns="http://www.w3.org/2000/svg">
<g id="Group 5440">
<g id="Group">
<g id="Group_2">
<g id="Group 8431">
<path id="&#226;&#130;&#185;" d="M18.7283 12.6072L16.8887 9.37757V8.61646H17.5019C17.863 8.61646 18.1662 8.5376 18.4115 8.37989C18.6568 8.21533 18.8135 7.98905 18.8816 7.70106H16.8887V6.93994H18.8714C18.8101 6.67938 18.684 6.46339 18.4933 6.29196C18.3025 6.11368 18.0368 6.02454 17.6961 6.02454H16.8887V5.26343H21.498V6.02454H19.8935C20.1319 6.28511 20.2818 6.59024 20.3431 6.93994H21.498V7.70106H20.3636C20.2955 8.20847 20.1013 8.60617 19.781 8.89416C19.4608 9.17529 19.0486 9.36729 18.5444 9.47014L20.5476 12.6072H18.7283Z" fill="#007A40" stroke="#007A40" stroke-width="0.5"/>
<path id="Vector" d="M33.6465 21.8738C33.325 21.8738 33.0644 22.1344 33.0644 22.4559C33.0644 22.8635 32.7328 23.195 32.3252 23.195C31.9177 23.195 31.5861 22.8635 31.5861 22.4559C31.5861 22.1343 31.3255 21.8738 31.004 21.8738C30.6825 21.8738 30.4219 22.1344 30.4219 22.4559C30.4219 23.5054 31.2758 24.3592 32.3252 24.3592C33.3747 24.3592 34.2286 23.5053 34.2286 22.4559C34.2286 22.1342 33.968 21.8738 33.6465 21.8738Z" fill="#007A40" stroke="#007A40" stroke-width="0.5"/>
<path id="Vector_2" d="M39.4722 21.9687L37.8337 21.4439C37.6239 21.3766 37.4585 21.2091 37.3914 20.9957C37.0461 19.8978 36.525 18.8671 35.8426 17.9321C35.5316 17.506 35.1857 17.099 34.8079 16.7116C35.0496 15.6512 35.181 14.4511 35.164 13.4143C35.1396 11.9311 34.8432 11.0612 34.2579 10.7546C33.9427 10.5893 32.9833 10.0871 27.7905 12.4642C27.6676 12.5204 27.5527 12.5897 27.4464 12.6691C27.0963 12.575 26.7385 12.488 26.3785 12.4099C26.3352 12.4004 26.2905 12.3921 26.2468 12.3828C26.6676 11.4636 26.9133 10.4653 26.9595 9.43464C26.9738 9.11339 26.7252 8.84136 26.4039 8.82706C26.0835 8.81112 25.8106 9.06128 25.7963 9.38253C25.7205 11.0771 25.0175 12.6716 23.817 13.8721C23.0998 14.5894 22.2599 15.1104 21.3648 15.4385C19.8126 15.2207 18.2315 15.2207 16.6792 15.4385C15.7841 15.1104 14.9443 14.5894 14.227 13.8721C12.9462 12.5914 12.2409 10.8885 12.2409 9.07714C12.2409 7.26573 12.9462 5.56292 14.227 4.28214C15.5078 3.00128 17.2108 2.29589 19.022 2.29589C20.8333 2.29589 22.5363 3.00128 23.817 4.28214C24.3317 4.79683 24.757 5.38417 25.0812 6.02769C25.2258 6.31487 25.5759 6.4305 25.863 6.28581C26.1502 6.14128 26.2657 5.7912 26.1211 5.50409C25.7412 4.74948 25.243 4.06144 24.6404 3.45878C23.1397 1.95808 21.1444 1.13159 19.0221 1.13159C16.8998 1.13159 14.9045 1.95808 13.4038 3.45878C11.9031 4.95956 11.0766 6.9548 11.0766 9.07706C11.0766 11.1993 11.9031 13.1946 13.4038 14.6953C13.8367 15.1282 14.3077 15.5005 14.8058 15.8124C14.8059 15.8124 14.8061 15.8123 14.8062 15.8123C14.4443 15.9064 14.0851 16.012 13.7298 16.1307C13.4249 16.2327 13.2604 16.5625 13.3623 16.8675C13.4642 17.1724 13.7941 17.3369 14.099 17.235C17.2737 16.1737 20.7705 16.1737 23.9452 17.235C24.0065 17.2555 24.0687 17.2652 24.1298 17.2652C24.3734 17.2652 24.6004 17.1111 24.6819 16.8675C24.7838 16.5625 24.6193 16.2327 24.3144 16.1307C23.9591 16.012 23.5999 15.9063 23.238 15.8123C23.2381 15.8123 23.2383 15.8124 23.2384 15.8124C23.7366 15.5005 24.2075 15.1282 24.6404 14.6953C25.0234 14.3124 25.3614 13.8942 25.6549 13.4497C25.8154 13.4809 25.9747 13.5135 26.1316 13.5476C26.3407 13.593 26.5488 13.6417 26.7551 13.6929C26.7486 13.7182 26.742 13.7435 26.7366 13.7692C26.4527 15.1164 26.4711 16.308 26.7913 17.3106C27.0791 18.2117 27.5986 18.9418 28.3351 19.4807C29.2031 20.1157 30.2511 20.39 31.2004 20.39C31.9148 20.39 32.5735 20.2345 33.0573 19.9605C33.6045 19.6506 34.0629 18.9975 34.4258 18.0171C34.5935 18.2128 34.7525 18.4134 34.9023 18.6187C35.5099 19.451 35.9738 20.3684 36.2809 21.3451C36.4613 21.9188 36.9091 22.3702 37.4788 22.5528L39.1172 23.0776C39.5471 23.2153 39.8359 23.611 39.8359 24.0625V26.7793C39.8359 27.2307 39.5471 27.6264 39.1172 27.7641L36.4774 28.6096C36.0551 28.745 35.6977 29.0353 35.471 29.427C34.4339 31.2193 32.8034 32.7025 30.6244 33.8354C30.3727 33.9664 30.1983 34.2007 30.1458 34.4784L29.3003 38.9552C29.277 39.0785 29.1689 39.168 29.0434 39.168H26.2944C26.1688 39.168 26.0608 39.0785 26.0374 38.9552L25.5691 36.481C25.477 35.9943 25.0204 35.6709 24.529 35.7453C23.3448 35.9244 22.1247 36.0151 20.9026 36.0151C19.9934 36.0151 19.0958 35.9644 18.2346 35.8643C17.7584 35.8096 17.3148 36.1342 17.2259 36.6043L16.7809 38.9552C16.7575 39.0785 16.6495 39.168 16.5239 39.168H13.7749C13.6494 39.168 13.5413 39.0785 13.5177 38.9533L12.7036 34.725C12.6512 34.4526 12.4801 34.221 12.2339 34.0895C8.51953 32.1066 6.55625 28.7938 6.55625 24.5094C6.55625 22.3447 7.02984 20.4306 7.96383 18.82C8.83539 17.3169 10.1084 16.0742 11.7473 15.1261C12.0256 14.9651 12.1207 14.609 11.9598 14.3307C11.7988 14.0524 11.4427 13.9575 11.1644 14.1182C7.98633 15.9567 6.06953 18.7929 5.5418 22.3953V22.3952C5.48578 22.3901 5.42969 22.3853 5.37383 22.3795C5.38398 21.9908 5.31367 21.5986 5.16055 21.218C4.82281 20.3785 4.12906 19.7725 3.39305 19.6743C2.81305 19.5967 2.26109 19.8429 1.87805 20.349C1.32266 21.0829 1.4132 21.6637 1.58688 22.0217C1.88008 22.6258 2.63375 23.0532 3.88445 23.3218C3.85008 23.3733 3.81227 23.425 3.77086 23.477C3.03187 24.4038 2.16125 24.6087 1.59594 24.628C1.265 24.6392 1 24.9049 1 25.236V25.2389C1 25.5655 1.25773 25.8319 1.58406 25.8468C1.62586 25.8488 1.66953 25.8498 1.715 25.8498C2.43031 25.8498 3.57836 25.586 4.68133 24.2029C4.85547 23.9846 4.99734 23.7543 5.10641 23.5164C5.21625 23.5288 5.3218 23.5394 5.42289 23.5488C5.42289 23.5485 5.42289 23.5484 5.42297 23.5482C5.40312 23.8636 5.39211 24.1837 5.39211 24.5094C5.39211 26.9335 5.97 29.0948 7.10961 30.9336C8.16039 32.6289 9.66484 34.0171 11.5827 35.061L12.3741 39.1716C12.5013 39.8441 13.0905 40.3322 13.7749 40.3322H16.5239C17.2084 40.3322 17.7975 39.8441 17.9248 39.1716L18.3271 37.046C19.1627 37.1345 20.0279 37.1793 20.9025 37.1793C22.1025 37.1793 23.3011 37.0957 24.4692 36.9307L24.8934 39.1718C25.0207 39.8443 25.6098 40.3323 26.2942 40.3323H29.0432C29.7277 40.3323 30.3168 39.8442 30.4441 39.1714L31.2673 34.8128C33.593 33.583 35.3459 31.9675 36.4786 30.01C36.5602 29.8689 36.6859 29.7654 36.8325 29.7185L39.4722 28.8729C40.386 28.58 41 27.7387 41 26.7791V24.0623C41 23.1028 40.386 22.2614 39.4722 21.9687ZM33.9123 15.0502C33.6883 16.9663 33.0873 18.6053 32.4834 18.9474C31.797 19.3362 30.2122 19.4113 29.0223 18.5409C27.8311 17.6695 27.4346 16.1025 27.8756 14.0092C27.8756 14.0091 27.8756 14.0091 27.8756 14.0091C27.9199 13.7989 28.0693 13.617 28.2752 13.5228C31.1895 12.1887 32.8698 11.7524 33.494 11.7524C33.5882 11.7524 33.6584 11.7623 33.7051 11.7806C33.8926 11.9804 34.1385 13.1164 33.9123 15.0502ZM2.63445 21.5133C2.57422 21.3891 2.71641 21.1707 2.80656 21.0515C2.94945 20.8628 3.08109 20.8242 3.18055 20.8242C3.20156 20.8242 3.22117 20.8259 3.23914 20.8283C3.5068 20.864 3.8818 21.1585 4.08047 21.6524C4.12727 21.7686 4.18805 21.9612 4.20227 22.2014C3.39641 22.0344 2.77031 21.7937 2.63445 21.5133Z" fill="#007A40" stroke="#007A40" stroke-width="0.5"/>
</g>
</g>
</g>
</g>
</svg>
