<svg width="46" height="31" viewBox="0 0 46 31" fill="none" xmlns="http://www.w3.org/2000/svg">
<g id="productsyouhave-credit-card">
<path d="M6.0776 22.3539C6.0776 21.8307 6.49709 21.4065 7.01455 21.4065H14.4425C14.96 21.4065 15.3795 21.8307 15.3795 22.3539C15.3795 22.8772 14.96 23.3013 14.4425 23.3013H7.01455C6.49709 23.3013 6.0776 22.8772 6.0776 22.3539Z" fill="#E3509F"/>
<path fill-rule="evenodd" clip-rule="evenodd" d="M4.50319 0H40.5877C43.0703 0 45.0909 2.04325 45.0909 4.55356V26.4464C45.0909 28.9567 43.0703 31 40.5877 31H4.50319C2.02065 31 0 28.9567 0 26.4464V4.55356C0 2.04325 2.02065 0 4.50319 0ZM1.78947 4.55356V8.02739H43.3014V4.55356C43.3014 3.04004 42.0845 1.80949 40.5877 1.80949H4.50319C3.00641 1.80949 1.78947 3.04004 1.78947 4.55356ZM43.3014 26.4464V9.83688H1.78947V26.4464C1.78947 27.96 3.00641 29.1905 4.50319 29.1905H40.5877C42.0845 29.1905 43.3014 27.96 43.3014 26.4464Z" fill="#E3509F"/>
</g>
</svg>
